<?xml version="1.0" encoding="UTF-8" standalone="no"?>
<svg
   xmlns:dc="http://purl.org/dc/elements/1.1/"
   xmlns:cc="http://creativecommons.org/ns#"
   xmlns:rdf="http://www.w3.org/1999/02/22-rdf-syntax-ns#"
   xmlns:svg="http://www.w3.org/2000/svg"
   xmlns="http://www.w3.org/2000/svg"
   viewBox="0 0 2354.2534 535.40265"
   height="535.40265"
   width="2354.2534"
   xml:space="preserve"
   id="svg2"
   version="1.1"
   fill="#ffffff"><metadata
     id="metadata8"><rdf:RDF><cc:Work
         rdf:about=""><dc:format>image/svg+xml</dc:format><dc:type
           rdf:resource="http://purl.org/dc/dcmitype/StillImage" /></cc:Work></rdf:RDF></metadata><defs
     id="defs6"><clipPath
       id="clipPath18"
       clipPathUnits="userSpaceOnUse"><path
         id="path16"
         d="M 0,401.552 H 1765.694 V 0 H 0 Z" /></clipPath></defs><g
     transform="matrix(1.3333333,0,0,-1.3333333,0,535.40267)"
     id="g10"><g
       id="g12"><g
         clip-path="url(#clipPath18)"
         id="g14"><g
           transform="translate(1613.1904,247.7441)"
           id="g20"><path
             id="path22"
             style="fill:#ffffff;fill-opacity:1;fill-rule:evenodd;stroke:none"
             d="m 0,0 c 0,14.372 -2.664,28.034 -7.88,40.933 -5.244,12.925 -12.784,24.434 -22.593,34.525 -9.609,9.979 -20.664,17.604 -33.25,22.961 -12.642,5.386 -25.965,8.107 -39.883,8.107 -13.975,0 -27.297,-2.665 -39.94,-7.965 -12.586,-5.301 -23.84,-12.983 -33.647,-23.103 -9.808,-9.949 -17.349,-21.401 -22.507,-34.327 -5.188,-12.898 -7.768,-26.617 -7.768,-41.131 0,-14.372 2.58,-27.95 7.768,-40.734 5.158,-12.785 12.699,-24.236 22.507,-34.299 9.807,-10.148 21.005,-17.83 33.59,-23.131 12.5,-5.301 25.88,-7.937 39.997,-7.937 13.861,0 26.958,2.636 39.487,7.937 12.443,5.301 23.697,12.983 33.646,23.131 9.809,10.063 17.349,21.514 22.593,34.356 C -2.664,-27.751 0,-14.229 0,0 m -308.19,103.044 v -245 h -47 v 245 h -75 v 40 h 197 v -40 z m -395,-245 v 295.764 l 180.353,-173.622 c 4.904,-4.875 9.753,-10.12 14.856,-15.676 5.017,-5.584 9.791,-11.877 15.791,-18.822 v 197.356 h 43 V -152.617 L -633.507,24.236 c -4.904,4.847 -9.832,9.893 -14.394,15.165 -4.649,5.301 -9.289,10.885 -13.289,16.697 v -198.054 z m -271,285 h 46 V -29.877 c 0,-25.569 5.861,-44.845 17.738,-57.686 11.848,-12.925 29.518,-19.332 53.102,-19.332 23.358,0 40.778,6.407 52.626,19.332 11.849,12.841 17.534,32.117 17.534,57.686 v 172.921 h 47 V -34.101 c 0,-38.438 -9.905,-67.238 -29.321,-86.315 -19.418,-19.077 -48.79,-28.602 -87.88,-28.602 -39.089,0 -68.405,9.525 -87.68,28.545 -19.277,18.993 -29.119,47.821 -29.119,86.372 z m -139,-119 h 11.363 c 25.654,0 42.719,2.676 51.279,8.26 8.532,5.555 12.784,15.312 12.784,29.429 0,15.08 -4.564,25.8 -13.719,32.008 -9.071,6.18 -25.881,9.303 -50.344,9.303 h -11.363 z m -3,-38 v -128 h -44 v 285 h 70.24 c 20.721,0 35.944,-1.293 45.752,-3.563 9.751,-2.238 18.283,-6.102 25.568,-11.29 8.958,-6.547 15.902,-15.552 21.005,-26.664 5.045,-11.197 7.54,-23.551 7.54,-36.987 0,-13.521 -2.495,-25.921 -7.54,-37.287 -5.103,-11.396 -12.047,-20.359 -21.005,-26.794 -7.285,-5.159 -15.817,-8.894 -25.568,-11.077 -9.808,-2.182 -25.031,-3.338 -45.752,-3.338 h -9.071 z m -311,-128 v 285 h 46 v -243 h 103 v -42 z m -186,0 v 285 h 159 v -40 h -113 v -71 h 113 v -40 h -113 v -92 h 113 v -42 z M 48.075,0 c 0,-20.211 -3.769,-39.288 -11.309,-57.231 -7.625,-18 -18.624,-34.044 -33.137,-48.162 -14.57,-14.087 -31.068,-24.887 -49.465,-32.371 -18.368,-7.483 -37.616,-11.254 -57.77,-11.254 -20.466,0 -39.94,3.771 -58.536,11.311 -18.566,7.625 -34.922,18.34 -49.152,32.314 -14.514,14.118 -25.512,30.077 -32.996,47.963 -7.483,17.829 -11.253,36.964 -11.253,57.43 0,20.353 3.77,39.486 11.253,57.43 7.484,18.028 18.482,34.1 32.996,48.359 14.484,14.116 30.926,24.831 49.266,32.173 18.369,7.37 37.814,11.084 58.422,11.084 20.41,0 39.742,-3.714 58.082,-11.084 C -27.241,130.62 -10.8,119.905 3.629,105.789 18.142,91.417 29.141,75.175 36.766,57.175 44.306,39.09 48.075,20.069 48.075,0" /></g><g
           transform="translate(1566.8438,45.832)"
           id="g24"><path
             id="path26"
             style="fill:#ffffff;fill-opacity:1;fill-rule:evenodd;stroke:none"
             d="m 0,0 c -0.198,2.835 -0.68,5.612 -1.417,8.362 -0.992,3.657 -2.494,7.087 -4.648,10.205 -2.013,2.948 -4.565,5.301 -7.655,7.058 -3.259,1.871 -6.859,2.608 -10.573,2.608 -0.113,0 -0.368,0 -0.453,-0.056 -0.198,-0.227 -0.255,-1.219 -0.255,-1.503 0,-2.04 0.879,-4.394 1.729,-6.208 1.333,-2.919 3.26,-5.584 5.358,-7.993 C -15.278,9.468 -12.16,6.889 -8.9,4.62 -6.122,2.693 -3.118,1.19 0,0 m -90.368,0 c -0.198,2.835 -0.709,5.612 -1.417,8.362 -0.992,3.657 -2.524,7.087 -4.65,10.205 -2.041,2.948 -4.563,5.301 -7.653,7.058 -3.26,1.871 -6.889,2.608 -10.601,2.608 -0.085,0 -0.34,0 -0.425,-0.056 -0.228,-0.227 -0.256,-1.219 -0.256,-1.503 0,-2.04 0.879,-4.394 1.729,-6.208 1.332,-2.919 3.26,-5.584 5.358,-7.993 2.637,-3.005 5.726,-5.584 9.014,-7.853 2.749,-1.927 5.754,-3.43 8.901,-4.62 m -162.766,-1.36 c -0.368,5.499 -1.275,11.877 -3.628,16.129 -0.51,0.963 -3.146,5.414 -4.478,5.414 -1.588,0 -1.56,-3.883 -1.56,-4.847 0,-4.224 1.106,-8.107 3.771,-11.452 1.7,-2.126 3.656,-3.884 5.895,-5.244 M -381.543,0 c -0.198,2.835 -0.681,5.612 -1.417,8.362 -0.992,3.657 -2.495,7.087 -4.649,10.205 -2.013,2.948 -4.564,5.301 -7.654,7.058 -3.259,1.871 -6.859,2.608 -10.601,2.608 -0.085,0 -0.34,0 -0.425,-0.056 -0.228,-0.227 -0.256,-1.219 -0.256,-1.503 0,-2.04 0.879,-4.394 1.73,-6.208 1.332,-2.919 3.259,-5.584 5.357,-7.993 2.637,-3.005 5.726,-5.584 9.015,-7.853 2.749,-1.927 5.754,-3.43 8.9,-4.62 m -164.183,25.342 c 1.787,3.373 3.43,6.804 5.018,10.233 3.345,7.314 6.35,14.769 9.07,22.337 2.75,7.738 5.075,15.648 6.861,23.669 1.587,6.945 2.664,14.174 2.664,21.316 0,4.99 -0.68,10.545 -3.203,14.94 -2.126,3.713 -5.641,4.903 -9.78,4.903 -3.429,0 -5.84,-1.445 -7.681,-4.28 -2.41,-3.656 -4.111,-7.738 -5.216,-11.99 -1.276,-4.763 -2.069,-9.638 -2.409,-14.542 -0.285,-3.997 -0.539,-8.108 -0.539,-12.132 0,-8.136 1.02,-16.725 2.097,-24.804 1.276,-9.836 2.268,-19.757 3.118,-29.65 m -79.681,-1.049 c -1.843,-0.481 -3.686,-1.021 -5.499,-1.587 -3.09,-0.992 -6.18,-2.184 -9.072,-3.657 -0.482,-0.255 -2.097,-1.162 -2.551,-1.786 0.624,-0.538 2.155,-1.106 3.317,-1.474 2.381,1.871 4.932,3.544 7.54,5.046 2.069,1.19 4.167,2.352 6.265,3.458 m 590.655,-3.26 c -1.361,-0.567 -2.495,-1.445 -3.402,-2.665 l -0.029,-0.027 -0.028,-0.057 c -1.417,-1.729 -2.437,-4.309 -3.146,-6.379 -1.276,-3.684 -1.502,-8.361 -1.502,-12.245 0,-4.082 0.481,-8.192 1.644,-12.104 0.991,-3.373 2.466,-6.605 4.592,-9.44 1.928,-2.579 4.337,-4.62 7.2,-6.122 3.004,-1.559 6.292,-2.211 9.694,-2.211 5.273,0 9.695,1.729 13.011,5.896 3.033,3.827 4.933,8.164 5.982,12.869 -4.706,1.135 -9.298,2.778 -13.522,5.187 -4.223,2.381 -8.192,5.358 -11.424,9.015 -2.806,3.175 -5.215,6.689 -6.859,10.602 -1.049,2.465 -1.871,5.045 -2.211,7.681 m -90.369,0 c -1.389,-0.567 -2.494,-1.445 -3.401,-2.665 l -0.029,-0.027 -0.028,-0.057 c -1.417,-1.729 -2.438,-4.309 -3.175,-6.379 -1.247,-3.684 -1.475,-8.361 -1.475,-12.245 0,-4.082 0.455,-8.192 1.617,-12.104 1.02,-3.373 2.494,-6.605 4.62,-9.44 1.928,-2.579 4.308,-4.62 7.172,-6.122 3.033,-1.559 6.321,-2.211 9.722,-2.211 5.273,0 9.696,1.729 13.012,5.896 3.004,3.827 4.932,8.164 5.981,12.869 -4.706,1.135 -9.297,2.778 -13.522,5.187 -4.252,2.381 -8.191,5.358 -11.451,9.015 -2.807,3.175 -5.188,6.689 -6.86,10.602 -1.021,2.465 -1.843,5.045 -2.183,7.681 m -291.175,0 c -1.36,-0.567 -2.494,-1.445 -3.401,-2.665 l -0.029,-0.027 -0.028,-0.057 c -1.417,-1.729 -2.437,-4.309 -3.146,-6.379 -1.276,-3.684 -1.502,-8.361 -1.502,-12.245 0,-4.082 0.481,-8.192 1.643,-12.104 0.992,-3.373 2.466,-6.605 4.592,-9.44 1.928,-2.579 4.337,-4.62 7.2,-6.122 3.005,-1.559 6.293,-2.211 9.695,-2.211 5.272,0 9.694,1.729 13.011,5.896 3.032,3.827 4.932,8.164 5.981,12.869 -4.705,1.135 -9.298,2.778 -13.521,5.187 -4.252,2.381 -8.192,5.358 -11.424,9.015 -2.806,3.175 -5.215,6.689 -6.888,10.602 -1.021,2.465 -1.842,5.045 -2.183,7.681 m -212.088,-8.022 c 2.749,-0.623 5.528,-1.219 8.306,-1.785 5.244,-1.078 10.432,-2.438 15.476,-4.224 4.422,-1.588 8.789,-3.601 12.615,-6.321 3.714,-2.637 5.981,-6.208 5.981,-10.828 0,-2.977 -1.162,-5.699 -2.863,-8.108 -1.53,-2.154 -3.232,-4.139 -5.131,-5.981 2.693,1.077 5.301,2.382 7.796,3.742 4.507,2.437 8.702,5.414 12.671,8.645 4.337,3.572 7.936,7.824 10.856,12.643 1.276,2.098 2.494,4.28 3.628,6.463 0.596,1.19 1.192,2.352 1.815,3.514 l -0.17,2.637 c -0.653,8.646 -1.361,17.32 -2.353,25.937 -0.709,6.009 -1.418,12.076 -2.353,18.086 -0.708,4.507 -1.162,9.098 -1.162,13.662 0,8.731 0.595,17.717 2.466,26.249 1.389,6.349 3.373,12.897 6.463,18.652 2.353,4.394 5.471,8.561 9.61,11.452 3.486,2.409 7.398,3.94 11.707,3.94 6.944,0 13.918,-1.785 18.113,-7.739 3.912,-5.584 5.131,-12.529 5.131,-19.218 0,-7.682 -1.304,-15.45 -3.232,-22.876 -2.211,-8.561 -5.074,-16.951 -8.39,-25.144 -3.402,-8.447 -7.229,-16.723 -11.424,-24.831 -3.685,-7.087 -7.625,-14.116 -11.962,-20.835 0.283,-4.337 0.51,-8.674 0.708,-13.039 0.086,-1.956 0.171,-3.912 0.228,-5.896 1.388,2.438 2.948,4.791 4.62,7.002 3.373,4.478 7.455,8.334 11.99,11.65 5.159,3.77 11.112,5.499 17.518,5.499 4.111,0 7.852,-1.275 10.942,-4.024 2.891,-2.552 5.272,-5.585 7.257,-8.873 2.126,-3.543 3.968,-7.314 5.527,-11.141 1.446,-3.571 3.062,-7.114 4.876,-10.544 1.474,-2.75 3.175,-5.442 5.244,-7.796 1.445,-1.643 3.147,-2.494 5.358,-2.494 3.94,0 8.758,3.713 11.593,6.151 3.09,2.636 5.925,5.867 8.504,8.986 3.771,4.564 7.285,9.411 10.658,14.258 1.389,2.013 2.665,4.111 3.714,6.293 0.368,0.708 0.708,1.417 1.049,2.126 0.878,3.543 2.041,7.03 3.656,10.289 1.474,3.062 3.402,5.982 5.84,8.363 2.239,2.126 4.96,3.657 8.107,3.657 0.907,0 1.672,-0.199 2.324,-0.539 0.369,0.794 0.85,1.588 1.39,2.324 2.182,2.892 5.357,4.082 8.928,4.082 4.933,0 9.695,-1.049 14.003,-3.486 4.026,-2.296 7.37,-5.358 10.007,-9.156 2.636,-3.855 4.535,-8.135 5.782,-12.643 1.276,-4.535 1.928,-9.184 1.956,-13.861 2.609,-0.425 5.273,-0.709 7.88,-0.709 4.819,0 9.185,1.588 13.153,4.253 4.111,2.749 7.087,7.313 9.242,11.707 l 0.085,0.934 c 0.311,2.382 0.566,5.188 1.162,7.513 l 0.028,0.085 c 0.34,1.275 0.936,2.466 1.871,3.401 2.041,2.466 5.131,3.26 8.22,3.26 2.126,0 3.511,-1.758 3.993,-3.6 0.254,-0.85 0.533,-1.814 0.533,-2.665 v -0.17 -0.169 c -1,-1.219 -0.372,-2.438 -0.513,-3.658 -0.142,-1.303 -0.487,-2.607 -0.487,-3.911 v -0.056 c -1,-2.297 -0.672,-4.593 -0.812,-6.889 -0.114,-2.381 -0.28,-4.762 -0.28,-7.144 0,-3.429 0.214,-6.887 0.582,-10.289 0.398,-3.515 1.143,-6.973 2.363,-10.29 1.019,-2.863 2.512,-5.499 4.637,-7.681 1.957,-2.013 4.446,-2.722 7.196,-2.722 1.672,0 3.371,0.283 4.788,1.219 1.332,0.879 2.521,1.927 3.484,3.203 0.851,1.105 1.56,2.352 2.041,3.657 0.228,0.708 0.51,1.53 0.737,2.296 -0.794,2.494 -1.134,5.216 -1.332,7.795 -0.227,3.373 -0.312,6.775 -0.312,10.177 0,2.012 0.085,4.053 0.198,6.037 0.17,2.523 0.425,5.046 0.794,7.541 0.34,2.239 0.85,4.535 1.672,6.632 0.879,2.268 2.523,4.139 5.131,4.139 3.231,0 4.989,-3.26 5.98,-5.896 1.135,-2.891 1.815,-5.952 1.815,-9.071 0,-2.835 -0.283,-5.726 -1.077,-8.447 -0.595,-2.069 -0.879,-4.224 -0.879,-6.378 0,-3.459 0.539,-6.832 1.786,-10.063 1.105,-2.92 2.58,-5.698 4.507,-8.135 1.616,-2.041 3.544,-3.856 5.811,-5.159 1.758,-1.021 3.713,-1.73 5.783,-1.73 3.061,0 6.236,0.453 9.014,1.815 2.353,1.162 4.422,2.692 6.095,4.761 1.643,2.041 2.806,4.337 3.543,6.832 0.651,2.183 1.077,4.366 1.304,6.605 -5.103,1.899 -9.383,5.074 -12.898,9.326 -4.167,5.073 -6.151,10.998 -6.151,17.546 0,3.771 0.312,8.845 2.352,12.133 1.588,2.551 3.884,4.365 6.974,4.365 2.75,0 5.244,-1.389 7.313,-3.09 2.438,-2.041 4.479,-4.535 6.18,-7.2 2.013,-3.118 3.671,-6.604 4.747,-10.177 1.162,-3.939 1.914,-8.021 1.914,-12.132 v -1.776 h -0.34 c 4.734,0 9.014,1.795 12.756,4.518 2.353,1.672 4.281,3.844 5.839,6.283 l 1.162,2.035 c 0.738,1.305 1.418,2.592 2.013,3.867 0.567,1.247 1.049,2.487 1.503,3.791 l 1.134,3.142 0.028,-0.03 c 0.34,1.218 0.623,2.436 0.794,3.655 0.453,3.203 0.963,6.745 0.963,9.977 0,1.532 0.341,3.033 1.22,4.309 0.849,1.19 1.983,2.183 3.514,2.183 1.446,0 2.75,-0.54 3.713,-1.645 0.851,-0.992 1.588,-2.579 2.126,-3.77 l 0.028,-0.057 0.03,-0.084 c 0.906,-2.354 2.239,-4.508 3.882,-6.436 1.673,-1.898 3.516,-3.656 5.528,-5.158 1.814,-1.305 3.714,-2.495 5.698,-3.459 1.275,-0.595 2.806,-1.219 4.224,-1.389 1.53,-0.084 2.466,-1.218 3.118,-2.494 0.51,-1.048 0.793,-2.154 0.793,-3.345 0,-1.389 -0.538,-2.664 -1.304,-3.798 -0.623,-0.964 -1.162,-1.985 -1.672,-3.005 -0.652,-1.304 -1.105,-2.778 -1.446,-4.224 -0.453,-1.984 -0.453,-4.252 -0.368,-6.264 0.255,-5.499 1.02,-14.344 3.969,-19.134 1.388,-2.211 3.458,-4.763 6.321,-4.763 2.692,0 5.527,1.786 7.568,3.374 3.6,2.834 6.831,6.321 9.695,9.921 3.571,4.479 6.831,9.241 9.835,14.116 2.581,4.167 4.99,8.448 7.201,12.784 0.822,2.864 1.814,5.67 3.118,8.334 1.502,3.062 3.401,5.982 5.867,8.363 2.24,2.126 4.933,3.657 8.107,3.657 0.908,0 1.673,-0.199 2.325,-0.539 0.369,0.794 0.822,1.588 1.389,2.324 2.183,2.892 5.358,4.082 8.929,4.082 4.933,0 9.694,-1.049 14.003,-3.486 4.025,-2.296 7.37,-5.358 10.007,-9.156 2.636,-3.855 4.535,-8.135 5.782,-12.643 1.276,-4.535 1.899,-9.184 1.956,-13.861 2.607,-0.425 5.273,-0.709 7.881,-0.709 4.818,0 9.184,1.588 13.152,4.253 3.26,2.182 5.782,5.499 7.71,8.872 0.822,3.033 1.9,6.009 3.288,8.843 1.475,3.062 3.403,5.982 5.868,8.363 2.211,2.126 4.933,3.657 8.08,3.657 0.906,0 1.671,-0.199 2.324,-0.539 0.368,0.794 0.849,1.588 1.388,2.324 2.183,2.892 5.386,4.082 8.93,4.082 4.932,0 9.694,-1.049 14.003,-3.486 4.025,-2.296 7.37,-5.358 10.006,-9.156 C 3.431,20.58 5.329,16.3 6.605,11.792 7.853,7.257 8.504,2.608 8.532,-2.069 c 2.609,-0.425 5.273,-0.709 7.881,-0.709 4.818,0 9.185,1.588 13.152,4.253 3.799,2.55 6.634,6.632 8.732,10.686 -0.313,2.041 -0.709,4.535 -0.709,6.463 0,2.551 0.964,4.818 2.863,6.576 1.276,1.162 2.976,2.523 4.79,2.523 2.92,0 4.757,-2.098 5.239,-4.79 0.34,-1.702 0.676,-3.458 0.676,-5.188 v -36.567 c 1,2.012 2.528,4.053 3.831,6.066 1.985,3.062 3.957,6.095 6.027,9.1 2.069,3.005 4.09,6.038 6.074,9.098 1.644,2.495 3.307,4.99 4.922,7.512 0.652,0.964 1.894,2.722 2.32,3.771 l 0.082,0.226 0.112,0.198 c 0.993,1.532 2.211,3.385 3.77,4.321 1.191,0.738 2.494,1.486 3.883,1.486 h 0.624 l 0.538,-0.494 c 0.624,-0.311 1.219,-0.772 1.786,-1.14 l 0.227,-0.201 0.169,-0.227 c 0.54,-0.512 0.964,-1.15 1.361,-1.774 0.681,-1.134 0.935,-2.444 0.935,-3.691 0.228,-8.278 0.426,-16.559 0.653,-24.836 0.085,-3.656 0.17,-7.287 0.34,-10.944 0.907,1.474 1.814,2.919 2.721,4.393 2.07,3.345 4.139,6.66 6.208,10.006 2.126,3.402 4.167,6.831 6.179,10.289 1.616,2.807 3.261,5.613 4.904,8.391 0.794,1.361 1.73,2.806 2.438,4.195 l 0.029,0.085 c 1.389,2.552 3.373,6.151 5.499,8.164 1.417,1.332 3.203,2.551 5.244,2.551 2.863,0 4.989,-1.531 5.754,-4.309 0.568,-2.098 0.737,-4.365 0.737,-6.548 0,-1.219 -0.028,-2.437 -0.113,-3.628 -0.056,-1.19 -0.085,-2.382 -0.085,-3.544 0,-8.419 0.821,-20.239 5.754,-27.41 3.203,-4.649 7.37,-7.909 13.237,-7.909 5.869,0 11.594,3.062 16.215,6.463 7.086,5.216 13.068,12.416 18.029,19.616 1.388,2.068 2.607,4.224 3.741,6.463 1.162,2.324 2.325,4.648 3.487,6.973 l 0.936,1.871 9.127,-2.409 -1.304,-2.807 c -1.049,-2.268 -2.154,-4.507 -3.317,-6.718 -1.218,-2.381 -2.58,-4.678 -4.053,-6.889 -6.237,-9.296 -13.918,-18.765 -23.103,-25.285 -6.576,-4.676 -14.371,-8.532 -22.592,-8.532 -3.713,0 -7.341,0.652 -10.771,2.041 -3.856,1.56 -6.832,4.394 -9.128,7.796 -2.92,4.337 -4.62,9.893 -5.697,14.938 -1.447,6.605 -1.9,13.749 -2.013,20.608 -1.899,-2.494 -3.685,-5.131 -5.414,-7.738 -2.438,-3.714 -4.876,-7.399 -7.313,-11.113 -2.439,-3.769 -4.876,-7.568 -7.257,-11.366 -1.928,-3.118 -3.856,-6.236 -5.754,-9.354 -0.992,-1.617 -2.071,-3.487 -3.176,-4.99 l -0.113,-0.17 -0.142,-0.113 c -1.19,-1.219 -2.692,-2.069 -4.422,-2.069 -2.126,0 -3.94,0.935 -5.357,2.466 -1.162,1.218 -2.239,2.721 -2.239,4.479 0,1.927 -0.057,3.883 -0.114,5.811 -0.056,3.855 -0.085,7.738 -0.085,11.593 0,4.196 -0.056,8.391 -0.113,12.586 -0.028,1.276 -0.058,2.551 -0.085,3.827 -1.616,-2.211 -3.176,-4.507 -4.678,-6.803 -2.182,-3.402 -4.365,-6.803 -6.491,-10.205 -2.154,-3.458 -4.337,-6.86 -6.576,-10.289 -1.786,-2.722 -3.657,-5.444 -5.67,-8.023 -1.304,-1.643 -3.345,-4.138 -5.612,-4.138 -2.353,0 -4.196,1.531 -5.528,3.316 -1.332,1.729 -2.267,3.77 -2.069,5.981 0.142,3.458 0.283,6.916 0.453,10.375 0.113,2.948 0.198,5.896 0.198,8.816 0,1.928 0,3.827 -0.027,5.755 -1.644,-1.73 -3.459,-3.261 -5.472,-4.536 -6.151,-3.912 -12.954,-5.754 -20.239,-5.754 -1.445,0 -2.92,0.056 -4.365,0.113 -0.596,0.028 -1.191,0.085 -1.758,0.113 -0.651,-3.175 -1.559,-6.293 -2.806,-9.298 -1.503,-3.571 -3.458,-6.916 -5.981,-9.836 -2.522,-2.919 -5.556,-5.187 -9.014,-6.859 -3.77,-1.786 -7.852,-2.523 -11.991,-2.523 -5.244,0 -10.658,0.765 -15.42,3.089 -4.054,1.985 -7.568,4.762 -10.29,8.391 -2.637,3.543 -4.478,7.512 -5.556,11.792 -0.935,3.856 -1.474,7.767 -1.559,11.707 -0.453,-0.311 -0.936,-0.651 -1.417,-0.935 -6.123,-3.912 -12.926,-5.754 -20.211,-5.754 -1.474,0 -2.92,0.056 -4.394,0.113 -0.567,0.028 -1.162,0.085 -1.757,0.113 -0.623,-3.175 -1.559,-6.293 -2.807,-9.298 -1.474,-3.571 -3.458,-6.916 -5.981,-9.836 -2.495,-2.919 -5.527,-5.187 -8.986,-6.859 -3.769,-1.786 -7.851,-2.523 -12.018,-2.523 -5.216,0 -10.63,0.765 -15.393,3.089 -4.054,1.985 -7.568,4.762 -10.289,8.391 -2.665,3.543 -4.48,7.512 -5.557,11.792 -0.594,2.409 -1.02,4.819 -1.275,7.257 -3.628,-5.244 -7.54,-10.29 -11.849,-14.995 -4.223,-4.621 -8.9,-8.987 -14.088,-12.501 -3.883,-2.608 -8.617,-5.018 -13.408,-5.018 -4.818,0 -8.39,2.524 -10.828,6.605 -3.09,5.244 -3.516,13.776 -3.516,19.729 0,1.758 0.171,3.572 0.341,5.358 0.227,2.182 0.453,4.337 0.738,6.519 0.283,2.041 0.538,4.111 0.849,6.152 0.113,0.68 0.227,1.388 0.313,2.097 -1.305,0.596 -2.495,1.56 -3.488,2.466 -1.956,1.843 -3.826,3.742 -5.612,5.727 -1.445,1.643 -2.863,3.259 -4.252,4.931 -0.141,-0.396 -0.311,-0.793 -0.453,-1.19 -0.341,-0.907 -0.709,-1.842 -1.105,-2.749 -2.807,-7.711 -7.116,-15.927 -13.948,-20.831 -5.301,-3.77 -11.253,-6.431 -17.83,-6.431 h -1.134 c -0.623,-3 -1.558,-6.495 -2.777,-9.698 -1.503,-3.856 -3.487,-7.386 -6.066,-10.618 -2.523,-3.174 -5.613,-5.678 -9.185,-7.577 -3.798,-2.041 -7.908,-2.895 -12.217,-2.895 -3.175,0 -6.264,0.636 -9.156,1.997 -2.636,1.246 -5.103,2.84 -7.313,4.739 -2.126,1.815 -4.081,3.83 -5.783,6.041 -0.822,1.021 -1.588,2.042 -2.352,3.12 -0.398,-0.625 -0.851,-1.275 -1.305,-1.871 -1.36,-1.842 -2.891,-3.513 -4.592,-5.073 -1.758,-1.587 -3.741,-2.975 -5.868,-4.081 -2.324,-1.191 -4.79,-1.786 -7.398,-1.786 -4.819,0 -9.354,1.275 -12.954,4.592 -3.288,3.033 -5.698,6.803 -7.399,10.913 -1.843,4.508 -2.975,9.269 -3.543,14.089 -0.368,3.089 -0.624,6.208 -0.765,9.354 -1.389,-1.361 -2.919,-2.552 -4.564,-3.6 -6.123,-3.912 -12.926,-5.754 -20.211,-5.754 -1.445,0 -2.92,0.056 -4.365,0.113 -0.596,0.028 -1.191,0.085 -1.786,0.113 -0.624,-3.175 -1.53,-6.293 -2.807,-9.298 -1.473,-3.571 -3.43,-6.916 -5.952,-9.836 -2.523,-2.919 -5.557,-5.187 -9.015,-6.859 -3.769,-1.786 -7.851,-2.523 -11.99,-2.523 -5.244,0 -10.658,0.765 -15.421,3.089 -4.053,1.985 -7.568,4.762 -10.289,8.391 -2.637,3.543 -4.479,7.512 -5.556,11.792 -0.624,2.552 -1.078,5.103 -1.333,7.71 -2.55,-3.458 -5.159,-6.859 -7.908,-10.147 -3.402,-4.082 -7.058,-8.164 -11.055,-11.707 -2.835,-2.524 -6.095,-5.018 -9.553,-6.605 -2.608,-1.22 -5.471,-2.098 -8.362,-2.098 -4.026,0 -7.512,1.417 -10.403,4.195 -2.778,2.693 -5.046,5.84 -6.973,9.184 -2.126,3.714 -3.997,7.569 -5.699,11.481 -1.587,3.742 -3.344,7.427 -5.328,10.998 -1.588,2.863 -3.487,5.67 -5.783,8.051 -1.701,1.728 -3.656,2.693 -6.123,2.693 -3.855,0 -7.625,-0.794 -10.885,-2.948 -3.175,-2.098 -5.896,-4.706 -8.164,-7.768 -2.381,-3.231 -4.393,-6.718 -6.037,-10.403 -1.56,-3.571 -3.09,-7.143 -4.508,-10.772 l -0.028,-0.056 c -0.68,-1.644 -1.049,-3.458 -1.191,-5.244 -0.169,-1.786 -0.453,-3.912 -1.133,-5.584 -0.425,-1.248 -1.106,-2.325 -1.956,-3.26 -1.162,-1.332 -2.721,-2.098 -4.479,-2.098 -3.827,0 -5.783,2.637 -5.783,6.293 0,1.247 0.058,2.523 0.256,3.742 0.141,0.992 0.34,1.984 0.595,2.976 0.227,0.85 0.369,1.758 0.482,2.637 0.17,1.275 0.198,2.635 0.198,3.911 0,5.528 -0.056,11.084 -0.198,16.611 -4.054,-5.357 -8.816,-10.091 -14.174,-14.173 -6.434,-4.904 -13.322,-9.099 -20.636,-12.501 -7.002,-3.26 -14.315,-5.783 -21.855,-7.455 -6.718,-1.502 -13.607,-2.466 -20.494,-2.466 -2.835,0 -7.144,0.567 -7.144,4.309 0,1.757 0.964,3.175 2.523,3.939 0.992,0.511 2.097,0.794 3.204,0.823 4.052,0.311 8.078,1.275 11.933,2.58 4.167,1.417 8.221,3.175 12.076,5.357 3.231,1.842 6.377,4.025 9.014,6.661 1.474,1.446 3.062,3.515 3.062,5.698 0,2.097 -1.277,3.487 -3.005,4.536 -3.062,1.898 -6.605,3.203 -10.035,4.195 -4.479,1.304 -9.042,2.324 -13.607,3.203 -4.677,0.907 -9.353,1.927 -13.974,3.089 -3.883,0.992 -7.824,2.325 -11.31,4.281 -3.203,1.814 -5.557,4.535 -5.557,8.334 0,3.968 3.09,7.114 6.039,9.354 3.827,2.92 8.164,5.272 12.614,7.172 4.819,2.069 9.779,3.798 14.853,5.13 4.054,1.078 8.617,2.041 12.841,2.041 2.296,0 5.442,0 7.653,-0.624 2.013,-0.566 3.856,-1.842 3.856,-4.11 0,-2.834 -2.778,-4.903 -4.933,-6.236 -2.947,-1.814 -6.009,-3.515 -9.042,-5.188 -3.685,-1.983 -7.342,-3.939 -11.027,-5.895 -1.615,-0.851 -3.203,-1.73 -4.762,-2.665" /></g></g></g></g></svg>
